<svg width="778" height="356" viewBox="0 0 778 356" fill="none" xmlns="http://www.w3.org/2000/svg">
<path fill-rule="evenodd" clip-rule="evenodd" d="M389 356C603.839 356 778 276.307 778 178C778 79.6933 603.839 0 389 0C174.161 0 0 79.6933 0 178C0 276.307 174.161 356 389 356ZM389 336C565.179 336 708 265.037 708 177.5C708 89.9629 565.179 19 389 19C212.821 19 70 89.9629 70 177.5C70 265.037 212.821 336 389 336Z" fill="#9738CC"/>
<path d="M535.55 162.03L538.7 147H562.01L558.86 162.03H535.55ZM527.27 208.2L532.94 181.2H527L532.13 165.54H558.05L549.05 208.2H527.27Z" fill="#9738CC"/>
<path d="M553.663 208.2L562.663 165.54H582.823L582.733 168.15C584.653 167.19 586.753 166.38 589.033 165.72C591.313 165 593.833 164.64 596.593 164.64C601.033 164.64 603.973 165.96 605.413 168.6C607.633 167.4 609.943 166.44 612.343 165.72C614.803 165 617.593 164.64 620.713 164.64C624.553 164.64 627.433 165.6 629.353 167.52C631.333 169.38 632.323 172.08 632.323 175.62C632.323 177.12 632.143 178.83 631.783 180.75L626.023 208.2H604.693L609.913 183.36C609.973 183.12 610.003 182.91 610.003 182.73C610.063 182.49 610.093 182.31 610.093 182.19C610.093 181.17 609.403 180.66 608.023 180.66C607.003 180.66 606.073 181.05 605.233 181.83L599.653 208.2H579.583L584.893 182.82C584.953 182.58 584.983 182.28 584.983 181.92C584.983 181.08 584.473 180.66 583.453 180.66C582.253 180.66 581.113 181.2 580.033 182.28L574.543 208.2H553.663Z" fill="#9738CC"/>
<path fill-rule="evenodd" clip-rule="evenodd" d="M389 316C465.215 316 527 254.215 527 178C527 174.051 526.834 170.14 526.509 166.275L507.239 183.45L519.839 207.66H496.799L491.309 194.79L488.879 197.04L486.629 207.66H464.849L477.719 147H499.499L493.829 173.55L503.459 165H526.396C519.844 94.8811 460.831 40 389 40C312.785 40 251 101.785 251 178C251 180.061 251.045 182.111 251.135 184.15C252.14 180.58 253.532 177.436 255.31 174.72C257.53 171.36 260.59 168.75 264.49 166.89C268.39 165.03 273.4 164.1 279.52 164.1C283.6 164.1 287.14 164.82 290.14 166.26C293.2 167.64 295.54 169.59 297.16 172.11C298.84 174.57 299.68 177.45 299.68 180.75C299.68 181.41 299.62 182.1 299.5 182.82C299.44 183.48 299.35 184.17 299.23 184.89L297.7 192.18H269.26C269.92 193.32 271.09 194.22 272.77 194.88C274.45 195.48 277.21 195.78 281.05 195.78C283.75 195.78 286.39 195.57 288.97 195.15C291.61 194.67 293.71 194.16 295.27 193.62L292.75 205.32C287.83 207.48 281.05 208.56 272.41 208.56C268.33 208.56 264.58 207.9 261.16 206.58C257.8 205.26 255.1 203.31 253.06 200.73C252.975 200.622 252.891 200.513 252.809 200.403C263.512 265.964 320.413 316 389 316ZM271.6 181.29H281.41L281.59 180.48C281.65 180.3 281.68 180.03 281.68 179.67C281.68 178.95 281.38 178.32 280.78 177.78C280.18 177.24 279.1 176.97 277.54 176.97C275.74 176.97 274.36 177.36 273.4 178.14C272.5 178.92 271.9 179.97 271.6 181.29ZM297.194 207.66L306.194 165H327.524V167.43C329.264 166.59 331.454 165.84 334.094 165.18C336.794 164.46 339.524 164.1 342.284 164.1L339.321 178.357C340.821 175.344 342.673 172.751 344.875 170.58C349.195 166.26 354.775 164.1 361.615 164.1C363.835 164.1 365.725 164.4 367.285 165C368.905 165.6 370.165 166.35 371.065 167.25L371.515 165H392.935L383.935 207.66H365.035L364.585 204.87C362.785 206.01 360.685 206.91 358.285 207.57C355.885 208.23 353.365 208.56 350.725 208.56C345.985 208.56 342.205 207.42 339.385 205.14C336.625 202.86 335.245 199.32 335.245 194.52C335.245 193.56 335.305 192.57 335.425 191.55C335.545 190.47 335.725 189.36 335.965 188.22C336.602 185.27 337.448 182.571 338.503 180.123C337.125 180.139 335.626 180.228 334.004 180.39C332.204 180.51 330.434 180.69 328.694 180.93C327.014 181.17 325.574 181.5 324.374 181.92L318.974 207.66H297.194ZM363.685 192.63C363.025 192.87 362.275 192.99 361.435 192.99C360.475 192.99 359.665 192.81 359.005 192.45C358.405 192.03 358.105 191.19 358.105 189.93C358.105 189.27 358.195 188.46 358.375 187.5C359.455 182.28 361.435 179.67 364.315 179.67C365.755 179.67 366.895 180.12 367.735 181.02L365.485 191.64C364.945 192.06 364.345 192.39 363.685 192.63ZM388.428 207.66L397.428 165H417.588L417.498 167.61C419.418 166.65 421.518 165.84 423.798 165.18C426.078 164.46 428.598 164.1 431.358 164.1C435.798 164.1 438.738 165.42 440.178 168.06C442.398 166.86 444.708 165.9 447.108 165.18C449.568 164.46 452.358 164.1 455.478 164.1C459.318 164.1 462.198 165.06 464.118 166.98C466.098 168.84 467.088 171.54 467.088 175.08C467.088 176.58 466.908 178.29 466.548 180.21L460.788 207.66H439.458L444.678 182.82C444.738 182.58 444.768 182.37 444.768 182.19C444.828 181.95 444.858 181.77 444.858 181.65C444.858 180.63 444.168 180.12 442.788 180.12C441.768 180.12 440.838 180.51 439.998 181.29L434.418 207.66H414.348L419.658 182.28C419.718 182.04 419.748 181.74 419.748 181.38C419.748 180.54 419.238 180.12 418.218 180.12C417.018 180.12 415.878 180.66 414.798 181.74L409.308 207.66H388.428Z" fill="#9738CC"/>
<path d="M139 208.66L151.87 148H173.65L169.42 167.62C170.8 166.96 172.54 166.39 174.64 165.91C176.74 165.37 178.9 165.1 181.12 165.1C185.92 165.1 189.52 166.15 191.92 168.25C194.38 170.35 195.61 173.38 195.61 177.34C195.61 178.9 195.43 180.58 195.07 182.38L189.49 208.66H167.71L172.84 184.18C172.9 183.94 172.93 183.73 172.93 183.55C172.93 183.37 172.93 183.22 172.93 183.1C172.93 181.78 172.15 181.12 170.59 181.12C169.99 181.12 169.24 181.3 168.34 181.66C167.44 182.02 166.72 182.44 166.18 182.92L160.78 208.66H139Z" fill="#9738CC"/>
<path d="M209.232 209.56C204.492 209.56 200.712 208.42 197.892 206.14C195.132 203.86 193.752 200.32 193.752 195.52C193.752 194.56 193.812 193.57 193.932 192.55C194.052 191.47 194.232 190.36 194.472 189.22C196.092 181.72 199.062 175.84 203.382 171.58C207.702 167.26 213.282 165.1 220.122 165.1C222.342 165.1 224.232 165.4 225.792 166C227.412 166.6 228.672 167.35 229.572 168.25L230.022 166H251.442L242.442 208.66H223.542L223.092 205.87C221.292 207.01 219.192 207.91 216.792 208.57C214.392 209.23 211.872 209.56 209.232 209.56ZM219.942 193.99C220.782 193.99 221.532 193.87 222.192 193.63C222.852 193.39 223.452 193.06 223.992 192.64L226.242 182.02C225.402 181.12 224.262 180.67 222.822 180.67C219.942 180.67 217.962 183.28 216.882 188.5C216.702 189.46 216.612 190.27 216.612 190.93C216.612 192.19 216.912 193.03 217.512 193.45C218.172 193.81 218.982 193.99 219.942 193.99Z" fill="#9738CC"/>
</svg>
