<svg width="598" height="120" viewBox="0 0 598 120" fill="none" xmlns="http://www.w3.org/2000/svg">
<path d="M12.5 7.3V41.2L16.88 42.4V46H0.98V42.4L6.56 41.2V7.6L0.98 6.4V2.8H16.88L26.54 40.72L36.26 2.8H52.16V6.4L46.58 7.6V41.2L52.16 42.4V46H36.26V42.4L40.64 41.2V7.3L30.86 46H22.22L12.5 7.3ZM65.4767 46.6C64.4767 46.6 63.4167 46.46 62.2967 46.18C61.2167 45.94 60.2167 45.5 59.2967 44.86C58.3767 44.18 57.6167 43.28 57.0167 42.16C56.4167 41 56.1167 39.54 56.1167 37.78C56.1167 36.5 56.3167 35.34 56.7167 34.3C57.1167 33.22 57.7567 32.3 58.6367 31.54C59.5167 30.78 60.6567 30.18 62.0567 29.74C63.4967 29.26 65.2567 28.96 67.3367 28.84L73.5767 28.54V25.84C73.5767 24.12 73.2367 22.66 72.5567 21.46C71.8767 20.22 70.5967 19.6 68.7167 19.6C67.6767 19.6 66.7967 19.78 66.0767 20.14C65.3567 20.5 64.7567 20.98 64.2767 21.58C63.8367 22.18 63.4967 22.86 63.2567 23.62C63.0567 24.34 62.9567 25.06 62.9567 25.78H57.8567V16H61.7567L62.9567 19.78H63.1967C63.9967 18.22 65.0767 17.1 66.4367 16.42C67.7967 15.74 69.3767 15.4 71.1767 15.4C73.7367 15.4 75.7167 16.04 77.1167 17.32C78.5567 18.6 79.2767 20.66 79.2767 23.5V41.2L83.7767 42.4V46H74.7767L73.5767 41.68C73.2567 42.72 72.7767 43.56 72.1367 44.2C71.4967 44.84 70.7967 45.34 70.0367 45.7C69.2767 46.06 68.4767 46.3 67.6367 46.42C66.8367 46.54 66.1167 46.6 65.4767 46.6ZM67.0967 42.4C68.2967 42.4 69.3167 42.16 70.1567 41.68C70.9967 41.16 71.6567 40.52 72.1367 39.76C72.6567 38.96 73.0167 38.08 73.2167 37.12C73.4567 36.12 73.5767 35.14 73.5767 34.18V31.66L68.2367 31.96C66.9567 32.04 65.9167 32.24 65.1167 32.56C64.3167 32.88 63.6767 33.3 63.1967 33.82C62.7167 34.3 62.3767 34.86 62.1767 35.5C62.0167 36.1 61.9367 36.74 61.9367 37.42C61.9367 38.42 62.0967 39.24 62.4167 39.88C62.7367 40.52 63.1367 41.04 63.6167 41.44C64.0967 41.8 64.6367 42.06 65.2367 42.22C65.8767 42.34 66.4967 42.4 67.0967 42.4ZM105.077 5.5L99.9167 4.3V0.699997H110.777V41.2L115.277 42.4V46H106.277L105.077 41.68C104.517 43.2 103.577 44.4 102.257 45.28C100.937 46.16 99.1567 46.6 96.9167 46.6C94.9167 46.6 93.2567 46.2 91.9367 45.4C90.6167 44.56 89.5567 43.44 88.7567 42.04C87.9967 40.64 87.4367 39 87.0767 37.12C86.7567 35.2 86.5967 33.16 86.5967 31C86.5967 28.84 86.7567 26.82 87.0767 24.94C87.3967 23.02 87.9567 21.36 88.7567 19.96C89.5567 18.56 90.5967 17.46 91.8767 16.66C93.1967 15.82 94.8567 15.4 96.8567 15.4C99.0567 15.4 100.857 15.86 102.257 16.78C103.697 17.66 104.637 18.98 105.077 20.74V5.5ZM98.3567 19.6C97.1967 19.6 96.2567 19.92 95.5367 20.56C94.8167 21.2 94.2367 22.04 93.7967 23.08C93.3967 24.12 93.1167 25.34 92.9567 26.74C92.7967 28.14 92.7167 29.58 92.7167 31.06C92.7167 32.58 92.7967 34.02 92.9567 35.38C93.1167 36.74 93.3967 37.94 93.7967 38.98C94.2367 40.02 94.8167 40.86 95.5367 41.5C96.2567 42.1 97.1967 42.4 98.3567 42.4C99.4767 42.4 100.457 42.18 101.297 41.74C102.137 41.3 102.837 40.7 103.397 39.94C103.957 39.18 104.377 38.34 104.657 37.42C104.937 36.46 105.077 35.46 105.077 34.42V27.04C105.077 25 104.517 23.26 103.397 21.82C102.277 20.34 100.597 19.6 98.3567 19.6ZM117.87 42.4L122.25 41.2V20.44L117.75 19.24V16H127.95V41.2L132.45 42.4V46H117.87V42.4ZM124.89 10.06C123.77 10.06 122.85 9.7 122.13 8.98C121.41 8.26 121.05 7.34 121.05 6.22C121.05 5.1 121.41 4.2 122.13 3.52C122.85 2.8 123.77 2.44 124.89 2.44C126.01 2.44 126.93 2.8 127.65 3.52C128.37 4.2 128.73 5.1 128.73 6.22C128.73 7.34 128.37 8.26 127.65 8.98C126.93 9.7 126.01 10.06 124.89 10.06ZM140.258 42.28L139.058 46H135.698V36.7H140.858C140.858 38.82 141.378 40.36 142.418 41.32C143.498 42.24 144.758 42.7 146.198 42.7C147.278 42.7 148.298 42.42 149.258 41.86C150.218 41.26 150.698 40.32 150.698 39.04C150.698 38 150.338 37.18 149.618 36.58C148.898 35.94 147.998 35.38 146.918 34.9C145.878 34.42 144.738 33.94 143.498 33.46C142.258 32.98 141.098 32.36 140.018 31.6C138.978 30.84 138.098 29.88 137.378 28.72C136.658 27.52 136.298 25.98 136.298 24.1C136.298 22.54 136.538 21.22 137.018 20.14C137.538 19.02 138.198 18.12 138.998 17.44C139.798 16.72 140.678 16.2 141.638 15.88C142.638 15.56 143.618 15.4 144.578 15.4C145.258 15.4 145.918 15.48 146.558 15.64C147.198 15.8 147.778 16.06 148.298 16.42C148.858 16.78 149.318 17.24 149.678 17.8C150.038 18.36 150.278 19.02 150.398 19.78H150.638L151.838 16H155.198V25.36H150.098C150.058 23.48 149.598 22 148.718 20.92C147.838 19.84 146.638 19.3 145.118 19.3C144.038 19.3 143.158 19.62 142.478 20.26C141.838 20.9 141.518 21.76 141.518 22.84C141.518 23.96 141.878 24.84 142.598 25.48C143.318 26.12 144.198 26.7 145.238 27.22C146.318 27.7 147.478 28.18 148.718 28.66C149.998 29.14 151.158 29.76 152.198 30.52C153.278 31.24 154.178 32.18 154.898 33.34C155.618 34.46 155.978 35.94 155.978 37.78C155.978 39.3 155.718 40.62 155.198 41.74C154.678 42.86 153.998 43.78 153.158 44.5C152.358 45.22 151.418 45.74 150.338 46.06C149.298 46.42 148.238 46.6 147.158 46.6C146.438 46.6 145.698 46.52 144.938 46.36C144.218 46.2 143.558 45.94 142.958 45.58C142.358 45.22 141.838 44.78 141.398 44.26C140.958 43.7 140.658 43.04 140.498 42.28H140.258ZM173.316 46.6C170.956 46.6 168.976 46.22 167.376 45.46C165.776 44.7 164.496 43.64 163.536 42.28C162.576 40.88 161.876 39.24 161.436 37.36C161.036 35.44 160.836 33.32 160.836 31C160.836 28.68 161.036 26.58 161.436 24.7C161.876 22.78 162.576 21.14 163.536 19.78C164.496 18.38 165.776 17.3 167.376 16.54C168.976 15.78 170.956 15.4 173.316 15.4C175.676 15.4 177.656 15.78 179.256 16.54C180.856 17.3 182.136 18.38 183.096 19.78C184.056 21.14 184.736 22.78 185.136 24.7C185.576 26.58 185.796 28.68 185.796 31C185.796 33.32 185.576 35.44 185.136 37.36C184.736 39.24 184.056 40.88 183.096 42.28C182.136 43.64 180.856 44.7 179.256 45.46C177.656 46.22 175.676 46.6 173.316 46.6ZM173.316 43C174.676 43 175.756 42.66 176.556 41.98C177.396 41.3 178.016 40.4 178.416 39.28C178.856 38.12 179.136 36.84 179.256 35.44C179.376 34 179.436 32.52 179.436 31C179.436 29.52 179.376 28.06 179.256 26.62C179.136 25.18 178.856 23.9 178.416 22.78C178.016 21.62 177.396 20.7 176.556 20.02C175.756 19.34 174.676 19 173.316 19C171.916 19 170.816 19.34 170.016 20.02C169.216 20.7 168.596 21.62 168.156 22.78C167.756 23.9 167.496 25.18 167.376 26.62C167.256 28.06 167.196 29.52 167.196 31C167.196 32.52 167.256 34 167.376 35.44C167.496 36.84 167.756 38.12 168.156 39.28C168.596 40.4 169.216 41.3 170.016 41.98C170.816 42.66 171.916 43 173.316 43ZM212.499 27.58C212.499 26.5 212.439 25.48 212.319 24.52C212.199 23.56 211.939 22.72 211.539 22C211.179 21.28 210.639 20.7 209.919 20.26C209.199 19.82 208.239 19.6 207.039 19.6C205.879 19.6 204.859 19.86 203.979 20.38C203.139 20.9 202.439 21.58 201.879 22.42C201.319 23.26 200.899 24.18 200.619 25.18C200.379 26.18 200.259 27.16 200.259 28.12V41.2L204.759 42.4V46H190.059V42.4L194.559 41.2V20.8L189.999 19.6V16H199.059L200.259 20.8C200.659 19 201.639 17.66 203.199 16.78C204.799 15.86 206.699 15.4 208.899 15.4C210.939 15.4 212.559 15.76 213.759 16.48C214.999 17.2 215.939 18.14 216.579 19.3C217.259 20.46 217.699 21.78 217.899 23.26C218.139 24.7 218.259 26.16 218.259 27.64V41.2L222.759 42.4V46H212.499V27.58ZM248.047 7.3V41.5H254.767C257.287 41.5 259.247 41.04 260.647 40.12C262.087 39.2 263.147 37.96 263.827 36.4C264.547 34.8 264.967 32.94 265.087 30.82C265.247 28.7 265.327 26.42 265.327 23.98C265.327 21.42 265.207 19.12 264.967 17.08C264.767 15 264.287 13.24 263.527 11.8C262.767 10.36 261.647 9.26 260.167 8.5C258.687 7.7 256.667 7.3 254.107 7.3H248.047ZM253.867 2.8C257.547 2.8 260.527 3.3 262.807 4.3C265.127 5.3 266.927 6.72 268.207 8.56C269.527 10.4 270.407 12.62 270.847 15.22C271.327 17.82 271.567 20.7 271.567 23.86C271.567 26.9 271.367 29.76 270.967 32.44C270.567 35.12 269.767 37.48 268.567 39.52C267.367 41.52 265.647 43.1 263.407 44.26C261.167 45.42 258.207 46 254.527 46H236.527V42.4L242.107 41.2V7.6L236.527 6.4V2.8H253.867ZM276.132 42.4L280.512 41.2V20.44L276.012 19.24V16H286.212V41.2L290.712 42.4V46H276.132V42.4ZM283.152 10.06C282.032 10.06 281.112 9.7 280.392 8.98C279.672 8.26 279.312 7.34 279.312 6.22C279.312 5.1 279.672 4.2 280.392 3.52C281.112 2.8 282.032 2.44 283.152 2.44C284.272 2.44 285.192 2.8 285.912 3.52C286.632 4.2 286.992 5.1 286.992 6.22C286.992 7.34 286.632 8.26 285.912 8.98C285.192 9.7 284.272 10.06 283.152 10.06ZM304.64 15.4C305.4 15.4 306.16 15.46 306.92 15.58C307.68 15.7 308.38 15.92 309.02 16.24C309.7 16.56 310.28 17 310.76 17.56C311.28 18.12 311.66 18.86 311.9 19.78H312.2L313.4 16H316.7V26.26C316.7 27.82 316.54 29.3 316.22 30.7C315.9 32.06 315.32 33.26 314.48 34.3C313.64 35.34 312.5 36.16 311.06 36.76C309.62 37.36 307.78 37.66 305.54 37.66C303.02 37.66 301.18 37.8 300.02 38.08C298.9 38.32 298.34 38.8 298.34 39.52C298.34 39.96 298.44 40.3 298.64 40.54C298.88 40.78 299.28 40.98 299.84 41.14C300.4 41.26 301.16 41.34 302.12 41.38C303.08 41.42 304.32 41.44 305.84 41.44C307.56 41.44 309.18 41.52 310.7 41.68C312.22 41.84 313.54 42.22 314.66 42.82C315.82 43.42 316.74 44.3 317.42 45.46C318.1 46.62 318.44 48.22 318.44 50.26C318.44 52.22 318.08 53.8 317.36 55C316.68 56.2 315.76 57.12 314.6 57.76C313.44 58.44 312.1 58.9 310.58 59.14C309.06 59.38 307.48 59.5 305.84 59.5C303.84 59.5 302.06 59.38 300.5 59.14C298.98 58.94 297.68 58.54 296.6 57.94C295.52 57.38 294.7 56.58 294.14 55.54C293.58 54.54 293.3 53.24 293.3 51.64C293.3 50.56 293.46 49.64 293.78 48.88C294.1 48.16 294.5 47.56 294.98 47.08C295.5 46.6 296.06 46.22 296.66 45.94C297.3 45.66 297.92 45.46 298.52 45.34V45.1C297.2 44.86 296.14 44.42 295.34 43.78C294.54 43.1 294.14 42.12 294.14 40.84C294.14 39.72 294.42 38.74 294.98 37.9C295.54 37.06 296.66 36.54 298.34 36.34V35.98C296.74 34.98 295.64 33.66 295.04 32.02C294.48 30.38 294.2 28.6 294.2 26.68C294.2 25.04 294.38 23.54 294.74 22.18C295.14 20.78 295.76 19.58 296.6 18.58C297.44 17.58 298.52 16.8 299.84 16.24C301.16 15.68 302.76 15.4 304.64 15.4ZM305.78 33.58C306.9 33.58 307.8 33.4 308.48 33.04C309.2 32.68 309.76 32.2 310.16 31.6C310.56 30.96 310.84 30.22 311 29.38C311.16 28.5 311.24 27.54 311.24 26.5C311.24 25.5 311.16 24.58 311 23.74C310.84 22.9 310.56 22.18 310.16 21.58C309.76 20.94 309.2 20.46 308.48 20.14C307.8 19.78 306.9 19.6 305.78 19.6C304.66 19.6 303.74 19.78 303.02 20.14C302.3 20.46 301.72 20.94 301.28 21.58C300.88 22.18 300.6 22.9 300.44 23.74C300.28 24.58 300.2 25.5 300.2 26.5C300.2 27.5 300.28 28.44 300.44 29.32C300.6 30.16 300.88 30.9 301.28 31.54C301.72 32.18 302.3 32.68 303.02 33.04C303.74 33.4 304.66 33.58 305.78 33.58ZM305.6 45.52C303.48 45.52 301.86 45.86 300.74 46.54C299.62 47.22 299.06 48.5 299.06 50.38C299.06 51.38 299.22 52.18 299.54 52.78C299.86 53.42 300.32 53.92 300.92 54.28C301.52 54.64 302.24 54.88 303.08 55C303.92 55.12 304.86 55.18 305.9 55.18C306.9 55.18 307.82 55.12 308.66 55C309.5 54.88 310.22 54.64 310.82 54.28C311.42 53.92 311.88 53.42 312.2 52.78C312.52 52.18 312.68 51.36 312.68 50.32C312.68 49.2 312.52 48.3 312.2 47.62C311.88 46.98 311.4 46.5 310.76 46.18C310.16 45.9 309.42 45.72 308.54 45.64C307.66 45.56 306.68 45.52 305.6 45.52ZM321.308 42.4L325.688 41.2V20.44L321.188 19.24V16H331.388V41.2L335.888 42.4V46H321.308V42.4ZM328.328 10.06C327.208 10.06 326.288 9.7 325.568 8.98C324.848 8.26 324.488 7.34 324.488 6.22C324.488 5.1 324.848 4.2 325.568 3.52C326.288 2.8 327.208 2.44 328.328 2.44C329.448 2.44 330.368 2.8 331.088 3.52C331.808 4.2 332.168 5.1 332.168 6.22C332.168 7.34 331.808 8.26 331.088 8.98C330.368 9.7 329.448 10.06 328.328 10.06ZM337.396 17.2L341.896 16L343.096 8.14H347.596V16H353.236V20.38H347.596V36.7C347.596 38.54 347.816 39.88 348.256 40.72C348.696 41.56 349.416 41.98 350.416 41.98C350.856 41.98 351.416 41.92 352.096 41.8C352.776 41.68 353.416 41.52 354.016 41.32L355.276 44.68C354.676 45.24 353.796 45.7 352.636 46.06C351.516 46.42 350.336 46.6 349.096 46.6C346.576 46.6 344.736 45.82 343.576 44.26C342.456 42.66 341.896 40.14 341.896 36.7V20.38H337.396V17.2ZM366.942 46.6C365.942 46.6 364.882 46.46 363.762 46.18C362.682 45.94 361.682 45.5 360.762 44.86C359.842 44.18 359.082 43.28 358.482 42.16C357.882 41 357.582 39.54 357.582 37.78C357.582 36.5 357.782 35.34 358.182 34.3C358.582 33.22 359.222 32.3 360.102 31.54C360.982 30.78 362.122 30.18 363.522 29.74C364.962 29.26 366.722 28.96 368.802 28.84L375.042 28.54V25.84C375.042 24.12 374.702 22.66 374.022 21.46C373.342 20.22 372.062 19.6 370.182 19.6C369.142 19.6 368.262 19.78 367.542 20.14C366.822 20.5 366.222 20.98 365.742 21.58C365.302 22.18 364.962 22.86 364.722 23.62C364.522 24.34 364.422 25.06 364.422 25.78H359.322V16H363.222L364.422 19.78H364.662C365.462 18.22 366.542 17.1 367.902 16.42C369.262 15.74 370.842 15.4 372.642 15.4C375.202 15.4 377.182 16.04 378.582 17.32C380.022 18.6 380.742 20.66 380.742 23.5V41.2L385.242 42.4V46H376.242L375.042 41.68C374.722 42.72 374.242 43.56 373.602 44.2C372.962 44.84 372.262 45.34 371.502 45.7C370.742 46.06 369.942 46.3 369.102 46.42C368.302 46.54 367.582 46.6 366.942 46.6ZM368.562 42.4C369.762 42.4 370.782 42.16 371.622 41.68C372.462 41.16 373.122 40.52 373.602 39.76C374.122 38.96 374.482 38.08 374.682 37.12C374.922 36.12 375.042 35.14 375.042 34.18V31.66L369.702 31.96C368.422 32.04 367.382 32.24 366.582 32.56C365.782 32.88 365.142 33.3 364.662 33.82C364.182 34.3 363.842 34.86 363.642 35.5C363.482 36.1 363.402 36.74 363.402 37.42C363.402 38.42 363.562 39.24 363.882 39.88C364.202 40.52 364.602 41.04 365.082 41.44C365.562 41.8 366.102 42.06 366.702 42.22C367.342 42.34 367.962 42.4 368.562 42.4ZM386.382 42.4L390.762 41.2V5.5L386.262 4.3V0.699997H396.462V41.2L400.962 42.4V46H386.382V42.4ZM432.749 25.84H447.149V46H442.409L441.809 39.82H441.509C441.189 40.9 440.769 41.86 440.249 42.7C439.769 43.54 439.129 44.26 438.329 44.86C437.569 45.46 436.609 45.9 435.449 46.18C434.289 46.5 432.909 46.66 431.309 46.66C428.269 46.66 425.769 46.12 423.809 45.04C421.889 43.96 420.369 42.42 419.249 40.42C418.169 38.42 417.409 36.02 416.969 33.22C416.569 30.38 416.369 27.2 416.369 23.68C416.369 20.68 416.529 17.88 416.849 15.28C417.209 12.68 417.929 10.4 419.009 8.44C420.129 6.48 421.709 4.94 423.749 3.82C425.829 2.7 428.569 2.14 431.969 2.14C432.929 2.14 433.869 2.22 434.789 2.38C435.709 2.5 436.549 2.78 437.309 3.22C438.109 3.62 438.789 4.22 439.349 5.02C439.949 5.78 440.429 6.82 440.789 8.14H441.089L442.229 2.8H446.969V17.5H441.029C441.029 14.1 440.269 11.52 438.749 9.76C437.229 7.96 434.949 7.06 431.909 7.06C429.909 7.06 428.289 7.46 427.049 8.26C425.849 9.02 424.909 10.16 424.229 11.68C423.589 13.16 423.149 15 422.909 17.2C422.709 19.4 422.609 21.92 422.609 24.76C422.609 27.6 422.709 30.1 422.909 32.26C423.149 34.38 423.589 36.14 424.229 37.54C424.909 38.94 425.869 40 427.109 40.72C428.349 41.4 429.969 41.74 431.969 41.74C433.769 41.74 435.249 41.48 436.409 40.96C437.609 40.4 438.549 39.64 439.229 38.68C439.949 37.72 440.449 36.58 440.729 35.26C441.009 33.9 441.169 32.42 441.209 30.82H432.749V25.84ZM461.981 46.6C460.981 46.6 459.921 46.46 458.801 46.18C457.721 45.94 456.721 45.5 455.801 44.86C454.881 44.18 454.121 43.28 453.521 42.16C452.921 41 452.621 39.54 452.621 37.78C452.621 36.5 452.821 35.34 453.221 34.3C453.621 33.22 454.261 32.3 455.141 31.54C456.021 30.78 457.161 30.18 458.561 29.74C460.001 29.26 461.761 28.96 463.841 28.84L470.081 28.54V25.84C470.081 24.12 469.741 22.66 469.061 21.46C468.381 20.22 467.101 19.6 465.221 19.6C464.181 19.6 463.301 19.78 462.581 20.14C461.861 20.5 461.261 20.98 460.781 21.58C460.341 22.18 460.001 22.86 459.761 23.62C459.561 24.34 459.461 25.06 459.461 25.78H454.361V16H458.261L459.461 19.78H459.701C460.501 18.22 461.581 17.1 462.941 16.42C464.301 15.74 465.881 15.4 467.681 15.4C470.241 15.4 472.221 16.04 473.621 17.32C475.061 18.6 475.781 20.66 475.781 23.5V41.2L480.281 42.4V46H471.281L470.081 41.68C469.761 42.72 469.281 43.56 468.641 44.2C468.001 44.84 467.301 45.34 466.541 45.7C465.781 46.06 464.981 46.3 464.141 46.42C463.341 46.54 462.621 46.6 461.981 46.6ZM463.601 42.4C464.801 42.4 465.821 42.16 466.661 41.68C467.501 41.16 468.161 40.52 468.641 39.76C469.161 38.96 469.521 38.08 469.721 37.12C469.961 36.12 470.081 35.14 470.081 34.18V31.66L464.741 31.96C463.461 32.04 462.421 32.24 461.621 32.56C460.821 32.88 460.181 33.3 459.701 33.82C459.221 34.3 458.881 34.86 458.681 35.5C458.521 36.1 458.441 36.74 458.441 37.42C458.441 38.42 458.601 39.24 458.921 39.88C459.241 40.52 459.641 41.04 460.121 41.44C460.601 41.8 461.141 42.06 461.741 42.22C462.381 42.34 463.001 42.4 463.601 42.4ZM501.461 20.86C499.781 20.86 498.381 20.96 497.261 21.16C496.141 21.36 495.241 21.76 494.561 22.36C493.881 22.96 493.381 23.78 493.061 24.82C492.781 25.86 492.641 27.22 492.641 28.9V41.32L498.881 42.1V46H482.441V42.52L486.941 41.32V20.8L482.381 19.6V16H491.141L492.341 20.8C493.021 18.96 494.201 17.6 495.881 16.72C497.561 15.84 499.421 15.4 501.461 15.4V20.86ZM522.557 5.5L517.397 4.3V0.699997H528.257V41.2L532.757 42.4V46H523.757L522.557 41.68C521.997 43.2 521.057 44.4 519.737 45.28C518.417 46.16 516.637 46.6 514.397 46.6C512.397 46.6 510.737 46.2 509.417 45.4C508.097 44.56 507.037 43.44 506.237 42.04C505.477 40.64 504.917 39 504.557 37.12C504.237 35.2 504.077 33.16 504.077 31C504.077 28.84 504.237 26.82 504.557 24.94C504.877 23.02 505.437 21.36 506.237 19.96C507.037 18.56 508.077 17.46 509.357 16.66C510.677 15.82 512.337 15.4 514.337 15.4C516.537 15.4 518.337 15.86 519.737 16.78C521.177 17.66 522.117 18.98 522.557 20.74V5.5ZM515.837 19.6C514.677 19.6 513.737 19.92 513.017 20.56C512.297 21.2 511.717 22.04 511.277 23.08C510.877 24.12 510.597 25.34 510.437 26.74C510.277 28.14 510.197 29.58 510.197 31.06C510.197 32.58 510.277 34.02 510.437 35.38C510.597 36.74 510.877 37.94 511.277 38.98C511.717 40.02 512.297 40.86 513.017 41.5C513.737 42.1 514.677 42.4 515.837 42.4C516.957 42.4 517.937 42.18 518.777 41.74C519.617 41.3 520.317 40.7 520.877 39.94C521.437 39.18 521.857 38.34 522.137 37.42C522.417 36.46 522.557 35.46 522.557 34.42V27.04C522.557 25 521.997 23.26 520.877 21.82C519.757 20.34 518.077 19.6 515.837 19.6ZM548.491 46.6C546.091 46.6 544.091 46.24 542.491 45.52C540.891 44.8 539.611 43.76 538.651 42.4C537.691 41.04 537.011 39.4 536.611 37.48C536.211 35.56 536.011 33.4 536.011 31C536.011 28.6 536.211 26.44 536.611 24.52C537.011 22.56 537.691 20.92 538.651 19.6C539.651 18.24 540.951 17.2 542.551 16.48C544.191 15.76 546.211 15.4 548.611 15.4C550.651 15.4 552.351 15.68 553.711 16.24C555.071 16.8 556.171 17.66 557.011 18.82C557.851 19.94 558.451 21.38 558.811 23.14C559.171 24.86 559.351 26.9 559.351 29.26C559.351 29.74 559.351 30.24 559.351 30.76C559.351 31.24 559.331 31.76 559.291 32.32H542.371C542.371 33.8 542.431 35.2 542.551 36.52C542.671 37.8 542.931 38.92 543.331 39.88C543.771 40.84 544.391 41.6 545.191 42.16C545.991 42.72 547.091 43 548.491 43C549.651 43 550.571 42.82 551.251 42.46C551.971 42.06 552.511 41.58 552.871 41.02C553.231 40.42 553.471 39.78 553.591 39.1C553.711 38.42 553.791 37.76 553.831 37.12H559.291C559.171 38.28 558.911 39.44 558.511 40.6C558.151 41.72 557.551 42.74 556.711 43.66C555.911 44.54 554.851 45.26 553.531 45.82C552.211 46.34 550.531 46.6 548.491 46.6ZM548.251 19C547.011 19 546.011 19.26 545.251 19.78C544.491 20.3 543.891 21 543.451 21.88C543.051 22.76 542.771 23.8 542.611 25C542.491 26.16 542.411 27.4 542.371 28.72H553.771C553.771 25.12 553.331 22.6 552.451 21.16C551.611 19.72 550.211 19 548.251 19ZM586.152 27.58C586.152 26.5 586.092 25.48 585.972 24.52C585.852 23.56 585.592 22.72 585.192 22C584.832 21.28 584.292 20.7 583.572 20.26C582.852 19.82 581.892 19.6 580.692 19.6C579.532 19.6 578.512 19.86 577.632 20.38C576.792 20.9 576.092 21.58 575.532 22.42C574.972 23.26 574.552 24.18 574.272 25.18C574.032 26.18 573.912 27.16 573.912 28.12V41.2L578.412 42.4V46H563.712V42.4L568.212 41.2V20.8L563.652 19.6V16H572.712L573.912 20.8C574.312 19 575.292 17.66 576.852 16.78C578.452 15.86 580.352 15.4 582.552 15.4C584.592 15.4 586.212 15.76 587.412 16.48C588.652 17.2 589.592 18.14 590.232 19.3C590.912 20.46 591.352 21.78 591.552 23.26C591.792 24.7 591.912 26.16 591.912 27.64V41.2L596.412 42.4V46H586.152V27.58ZM2.36 101.78H21.2V106.16H2.36V101.78ZM27.9069 101.78H46.7469V106.16H27.9069V101.78ZM53.4538 101.78H72.2938V106.16H53.4538V101.78ZM79.0006 101.78H97.8406V106.16H79.0006V101.78ZM104.548 101.78H123.388V106.16H104.548V101.78ZM180.989 79.4L175.409 80.6V114.2L180.989 115.4V119H163.889V115.4L169.469 114.2V99.62H152.129V114.2L157.709 115.4V119H140.609V115.4L146.189 114.2V80.6L140.609 79.4V75.8H157.709V79.4L152.129 80.6V94.64H169.469V80.6L163.889 79.4V75.8H180.989V79.4ZM194.324 119.6C193.324 119.6 192.264 119.46 191.144 119.18C190.064 118.94 189.064 118.5 188.144 117.86C187.224 117.18 186.464 116.28 185.864 115.16C185.264 114 184.964 112.54 184.964 110.78C184.964 109.5 185.164 108.34 185.564 107.3C185.964 106.22 186.604 105.3 187.484 104.54C188.364 103.78 189.504 103.18 190.904 102.74C192.344 102.26 194.104 101.96 196.184 101.84L202.424 101.54V98.84C202.424 97.12 202.084 95.66 201.404 94.46C200.724 93.22 199.444 92.6 197.564 92.6C196.524 92.6 195.644 92.78 194.924 93.14C194.204 93.5 193.604 93.98 193.124 94.58C192.684 95.18 192.344 95.86 192.104 96.62C191.904 97.34 191.804 98.06 191.804 98.78H186.704V89H190.604L191.804 92.78H192.044C192.844 91.22 193.924 90.1 195.284 89.42C196.644 88.74 198.224 88.4 200.024 88.4C202.584 88.4 204.564 89.04 205.964 90.32C207.404 91.6 208.124 93.66 208.124 96.5V114.2L212.624 115.4V119H203.624L202.424 114.68C202.104 115.72 201.624 116.56 200.984 117.2C200.344 117.84 199.644 118.34 198.884 118.7C198.124 119.06 197.324 119.3 196.484 119.42C195.684 119.54 194.964 119.6 194.324 119.6ZM195.944 115.4C197.144 115.4 198.164 115.16 199.004 114.68C199.844 114.16 200.504 113.52 200.984 112.76C201.504 111.96 201.864 111.08 202.064 110.12C202.304 109.12 202.424 108.14 202.424 107.18V104.66L197.084 104.96C195.804 105.04 194.764 105.24 193.964 105.56C193.164 105.88 192.524 106.3 192.044 106.82C191.564 107.3 191.224 107.86 191.024 108.5C190.864 109.1 190.784 109.74 190.784 110.42C190.784 111.42 190.944 112.24 191.264 112.88C191.584 113.52 191.984 114.04 192.464 114.44C192.944 114.8 193.484 115.06 194.084 115.22C194.724 115.34 195.344 115.4 195.944 115.4ZM227.924 119.6C225.524 119.6 223.524 119.24 221.924 118.52C220.324 117.8 219.044 116.76 218.084 115.4C217.124 114.04 216.444 112.4 216.044 110.48C215.644 108.56 215.444 106.4 215.444 104C215.444 101.6 215.644 99.44 216.044 97.52C216.444 95.56 217.124 93.92 218.084 92.6C219.084 91.24 220.384 90.2 221.984 89.48C223.624 88.76 225.644 88.4 228.044 88.4C230.084 88.4 231.784 88.68 233.144 89.24C234.504 89.8 235.604 90.66 236.444 91.82C237.284 92.94 237.884 94.38 238.244 96.14C238.604 97.86 238.784 99.9 238.784 102.26C238.784 102.74 238.784 103.24 238.784 103.76C238.784 104.24 238.764 104.76 238.724 105.32H221.804C221.804 106.8 221.864 108.2 221.984 109.52C222.104 110.8 222.364 111.92 222.764 112.88C223.204 113.84 223.824 114.6 224.624 115.16C225.424 115.72 226.524 116 227.924 116C229.084 116 230.004 115.82 230.684 115.46C231.404 115.06 231.944 114.58 232.304 114.02C232.664 113.42 232.904 112.78 233.024 112.1C233.144 111.42 233.224 110.76 233.264 110.12H238.724C238.604 111.28 238.344 112.44 237.944 113.6C237.584 114.72 236.984 115.74 236.144 116.66C235.344 117.54 234.284 118.26 232.964 118.82C231.644 119.34 229.964 119.6 227.924 119.6ZM227.684 92C226.444 92 225.444 92.26 224.684 92.78C223.924 93.3 223.324 94 222.884 94.88C222.484 95.76 222.204 96.8 222.044 98C221.924 99.16 221.844 100.4 221.804 101.72H233.204C233.204 98.12 232.764 95.6 231.884 94.16C231.044 92.72 229.644 92 227.684 92ZM262.105 93.86C260.425 93.86 259.025 93.96 257.905 94.16C256.785 94.36 255.885 94.76 255.205 95.36C254.525 95.96 254.025 96.78 253.705 97.82C253.425 98.86 253.285 100.22 253.285 101.9V114.32L259.525 115.1V119H243.085V115.52L247.585 114.32V93.8L243.025 92.6V89H251.785L252.985 93.8C253.665 91.96 254.845 90.6 256.525 89.72C258.205 88.84 260.065 88.4 262.105 88.4V93.86ZM274.539 119.6C273.539 119.6 272.479 119.46 271.359 119.18C270.279 118.94 269.279 118.5 268.359 117.86C267.439 117.18 266.679 116.28 266.079 115.16C265.479 114 265.179 112.54 265.179 110.78C265.179 109.5 265.379 108.34 265.779 107.3C266.179 106.22 266.819 105.3 267.699 104.54C268.579 103.78 269.719 103.18 271.119 102.74C272.559 102.26 274.319 101.96 276.399 101.84L282.639 101.54V98.84C282.639 97.12 282.299 95.66 281.619 94.46C280.939 93.22 279.659 92.6 277.779 92.6C276.739 92.6 275.859 92.78 275.139 93.14C274.419 93.5 273.819 93.98 273.339 94.58C272.899 95.18 272.559 95.86 272.319 96.62C272.119 97.34 272.019 98.06 272.019 98.78H266.919V89H270.819L272.019 92.78H272.259C273.059 91.22 274.139 90.1 275.499 89.42C276.859 88.74 278.439 88.4 280.239 88.4C282.799 88.4 284.779 89.04 286.179 90.32C287.619 91.6 288.339 93.66 288.339 96.5V114.2L292.839 115.4V119H283.839L282.639 114.68C282.319 115.72 281.839 116.56 281.199 117.2C280.559 117.84 279.859 118.34 279.099 118.7C278.339 119.06 277.539 119.3 276.699 119.42C275.899 119.54 275.179 119.6 274.539 119.6ZM276.159 115.4C277.359 115.4 278.379 115.16 279.219 114.68C280.059 114.16 280.719 113.52 281.199 112.76C281.719 111.96 282.079 111.08 282.279 110.12C282.519 109.12 282.639 108.14 282.639 107.18V104.66L277.299 104.96C276.019 105.04 274.979 105.24 274.179 105.56C273.379 105.88 272.739 106.3 272.259 106.82C271.779 107.3 271.439 107.86 271.239 108.5C271.079 109.1 270.999 109.74 270.999 110.42C270.999 111.42 271.159 112.24 271.479 112.88C271.799 113.52 272.199 114.04 272.679 114.44C273.159 114.8 273.699 115.06 274.299 115.22C274.939 115.34 275.559 115.4 276.159 115.4ZM295.059 115.4L299.559 114.2V93.8L294.999 92.6V89H304.059L305.259 93.8C305.579 92.28 306.459 91 307.899 89.96C309.379 88.92 311.099 88.4 313.059 88.4C315.659 88.4 317.559 88.92 318.759 89.96C319.999 91 320.799 92.38 321.159 94.1C321.799 92.34 322.839 90.96 324.279 89.96C325.719 88.92 327.419 88.4 329.379 88.4C331.139 88.4 332.559 88.68 333.639 89.24C334.759 89.76 335.619 90.48 336.219 91.4C336.859 92.28 337.279 93.3 337.479 94.46C337.719 95.58 337.839 96.74 337.839 97.94V114.2L342.339 115.4V119H332.079V102.68C332.079 101.24 332.039 99.92 331.959 98.72C331.879 97.48 331.659 96.42 331.299 95.54C330.979 94.62 330.479 93.9 329.799 93.38C329.159 92.86 328.259 92.6 327.099 92.6C326.059 92.6 325.179 92.92 324.459 93.56C323.779 94.2 323.219 95 322.779 95.96C322.339 96.88 322.019 97.88 321.819 98.96C321.619 100 321.519 100.96 321.519 101.84V114.2L326.019 115.4V119H315.819V102.68C315.819 101.24 315.779 99.92 315.699 98.72C315.619 97.48 315.399 96.42 315.039 95.54C314.719 94.62 314.219 93.9 313.539 93.38C312.899 92.86 311.999 92.6 310.839 92.6C309.879 92.6 309.039 92.92 308.319 93.56C307.599 94.16 307.019 94.92 306.579 95.84C306.139 96.72 305.799 97.68 305.559 98.72C305.359 99.72 305.259 100.64 305.259 101.48V114.2L309.759 115.4V119H295.059V115.4ZM376.875 115.4L381.555 114.8L370.155 99.26L367.695 101.9V114.2L373.275 115.4V119H356.175V115.4L361.755 114.2V80.6L356.175 79.4V75.8H372.735V79.4L367.695 80.36V94.22L380.355 80.18L376.215 79.4V75.8H393.435V79.4L388.095 80.6L374.475 94.82L388.515 114.2L394.035 115.4V119H376.875V115.4ZM396.659 115.4L401.039 114.2V93.44L396.539 92.24V89H406.739V114.2L411.239 115.4V119H396.659V115.4ZM403.679 83.06C402.559 83.06 401.639 82.7 400.919 81.98C400.199 81.26 399.839 80.34 399.839 79.22C399.839 78.1 400.199 77.2 400.919 76.52C401.639 75.8 402.559 75.44 403.679 75.44C404.799 75.44 405.719 75.8 406.439 76.52C407.159 77.2 407.519 78.1 407.519 79.22C407.519 80.34 407.159 81.26 406.439 81.98C405.719 82.7 404.799 83.06 403.679 83.06ZM413.887 115.4L418.387 114.2V93.8L413.827 92.6V89H422.887L424.087 93.8C424.407 92.28 425.287 91 426.727 89.96C428.207 88.92 429.927 88.4 431.887 88.4C434.487 88.4 436.387 88.92 437.587 89.96C438.827 91 439.627 92.38 439.987 94.1C440.627 92.34 441.667 90.96 443.107 89.96C444.547 88.92 446.247 88.4 448.207 88.4C449.967 88.4 451.387 88.68 452.467 89.24C453.587 89.76 454.447 90.48 455.047 91.4C455.687 92.28 456.107 93.3 456.307 94.46C456.547 95.58 456.667 96.74 456.667 97.94V114.2L461.167 115.4V119H450.907V102.68C450.907 101.24 450.867 99.92 450.787 98.72C450.707 97.48 450.487 96.42 450.127 95.54C449.807 94.62 449.307 93.9 448.627 93.38C447.987 92.86 447.087 92.6 445.927 92.6C444.887 92.6 444.007 92.92 443.287 93.56C442.607 94.2 442.047 95 441.607 95.96C441.167 96.88 440.847 97.88 440.647 98.96C440.447 100 440.347 100.96 440.347 101.84V114.2L444.847 115.4V119H434.647V102.68C434.647 101.24 434.607 99.92 434.527 98.72C434.447 97.48 434.227 96.42 433.867 95.54C433.547 94.62 433.047 93.9 432.367 93.38C431.727 92.86 430.827 92.6 429.667 92.6C428.707 92.6 427.867 92.92 427.147 93.56C426.427 94.16 425.847 94.92 425.407 95.84C424.967 96.72 424.627 97.68 424.387 98.72C424.187 99.72 424.087 100.64 424.087 101.48V114.2L428.587 115.4V119H413.887V115.4ZM476.383 101.78H495.223V106.16H476.383V101.78ZM501.93 101.78H520.77V106.16H501.93V101.78ZM527.477 101.78H546.317V106.16H527.477V101.78ZM553.024 101.78H571.864V106.16H553.024V101.78ZM578.571 101.78H597.411V106.16H578.571V101.78Z" fill="#FFFF00"/>
</svg>
